<defs>
<font horiz-adv-x="479" ><font-face
    font-family="bpreplay-bold-italic"
    units-per-em="1000"
    panose-1="2 0 8 3 0 0 0 9 0 4"
    ascent="981"
    descent="-245"
    alphabetic="0" />
<missing-glyph horiz-adv-x="283" />
<glyph unicode=" " glyph-name="space" horiz-adv-x="283" />
<glyph unicode="!" glyph-name="exclam" horiz-adv-x="208" d="M158 326Q149 248 72 248Q4 248 4 310Q4 320 43 690Q52 773 128 773Q197 773 197 707Q197 696 158 326ZM-32 80Q-28 123 0 150T66 178Q102 178 124 155T147 98Q143 54 115 27T48 0Q14 0 -9 23T-32 80Z" />
<glyph unicode="&quot;" glyph-name="quotedbl" horiz-adv-x="407" d="M36 691Q45 774 123 774Q191 774 191 708Q191 697 177 560Q168 481 91 481Q21 481 21 546Q21 548 23 567Q29 620 36 691ZM230 691Q239 774 317 774Q388 774 388 707Q388 696 374 560Q365 481
285 481Q215 481 215 546Q215 548 217 568Q223 621 230 691Z" />
<glyph unicode="#" glyph-name="numbersign" horiz-adv-x="663" d="M144 550H178Q182 570 214 699Q233 772 294 772Q323 772 343 752T363 704L327 550H361L398 700Q416 773 479 773Q507 773 525 754T544 706L510 550H522Q552 550 573 534T594 486Q585 403 502
403H476Q468 384 460 348H473Q542 348 542 286Q542 248 516 223T454 198H423L393 81Q372 0 303 0Q243 0 243 56Q243 72 246 78L276 198H240L211 82Q190 0 121 0Q61 0 61 55Q61 57 61 61T62 68Q62 72 93 198H82Q5 198 5 263Q9 306 36 327T96 348H128Q135 365 145
403H129Q58 403 58 464Q58 505 81 527T144 550ZM327 403H291L276 348H312L327 403Z" />
<glyph unicode="$" glyph-name="dollar" horiz-adv-x="544" d="M253 797L256 823Q260 860 269 873T311 886Q335 886 343 878T352 851Q352 845 351 833T349 815L347 794Q411 782 460 742Q498 712 498 674Q498 638 471 609T409 580Q377 580 349 605L329 619L314
483Q407 435 452 390T497 271Q497 166 430 91T263 -5L259 -47Q256 -81 247 -93T205 -106Q180 -106 172 -98T163 -71Q163 -64 165 -40L168 -11Q83 -3 17 43Q-21 69 -21 112Q-17 158 4 178T65 199Q95 199 123 182Q152 162 186 156L206 345Q168 364 142 380T88 421T46
478T32 550Q32 642 98 711T253 797ZM326 240Q326 274 295 296L281 171Q320 194 326 240ZM201 577V571Q201 547 225 528L236 628Q205 616 201 577Z" />
<glyph unicode="%" glyph-name="percent" horiz-adv-x="948" d="M731 418Q810 418 855 365T900 234Q900 139 840 70T688 0Q606 0 560 52T514 184Q514 282 577 350T731 418ZM702 139Q729 139 741 165T754 219Q754 243 745 260T717 277Q695 277 681 255T663 195Q663
171 673 155T702 139ZM213 354Q134 354 88 409T41 543Q41 638 104 705T257 772Q337 772 383 719T429 588Q429 492 366 423T213 354ZM227 493Q255 493 268 519T282 575Q282 599 272 615T242 632Q216 632 204 605T191 550Q191 526 200 510T227 493ZM248 92L555 713Q582
768 636 768Q665 768 683 750T701 703Q699 676 687 654L372 28Q367 14 347 0T299 -14Q273 -14 256 4T238 51Q238 76 248 92Z" />
<glyph unicode="&amp;" glyph-name="ampersand" horiz-adv-x="760" d="M280 593Q280 559 302 526Q342 566 345 604Q345 619 337 627T317 635Q299 635 290 623T280 593ZM502 16L455 72Q362 -19 246 -19Q132 -19 68 41T3 199Q3 347 163 464Q132 514 132 566Q132
652 192 712T334 772Q398 772 442 732T487 617Q487 523 394 436L480 325L505 362Q543 418 593 418Q624 418 642 400T661 353Q658 316 633 279L572 201L624 133Q638 116 638 92Q634 52 609 26T552 0Q518 0 502 16ZM372 189L248 344Q164 281 159 221Q159 183 189
158T262 133Q320 133 372 189Z" />
<glyph unicode="&apos;" glyph-name="quotesingle" horiz-adv-x="255" d="M243 656L173 525Q144 475 91 475Q61 475 40 494T18 543Q20 563 25 576L95 713Q126 774 183 774Q213 774 234 753T255 701Q255 675 243 656Z" />
<glyph unicode="(" glyph-name="parenleft" horiz-adv-x="289" d="M179 738Q211 762 240 762Q268 762 286 742T305 689Q302 659 278 635Q148 497 148 294Q148 144 221 57Q233 38 233 5Q230 -27 207 -47T153 -67Q118 -67 97 -42Q-3 70 -3 278Q-3 550 179 738Z" />
<glyph unicode=")" glyph-name="parenright" horiz-adv-x="289" d="M166 742Q273 612 273 425Q273 295 227 169T89 -42Q63 -67 28 -67Q-1 -67 -19 -48T-38 5Q-34 33 -16 57Q49 117 84 209T120 402Q120 540 51 635Q34 658 34 689Q37 719 62 740T117 762Q145 762 166 742Z" />
<glyph unicode="*" glyph-name="asterisk" horiz-adv-x="625" d="M207 547L185 563Q164 583 164 611Q167 644 190 666T243 689Q248 689 257 687T268 685L292 669V674Q292 706 314 732T370 758Q393 758 412 740T431 681V669L442 676Q460 688 484 688T527 669T546
624Q543 582 504 554L489 547L498 543Q532 523 532 485Q529 453 506 431T454 408Q442 408 406 424L405 413Q401 378 378 358T326 338Q299 338 281 355T261 405L263 425Q228 407 213 407Q187 407 168 425T149 470Q149 502 184 535L207 547Z" />
<glyph unicode="+" glyph-name="plus" horiz-adv-x="625" d="M124 370H242L255 487Q259 525 283 547T344 570Q376 570 396 549T417 497Q417 496 416 486Q411 443 403 370H521Q559 370 580 351T602 299Q602 256 574 231T504 206H386L373 82Q369 48 345 24T286 0Q250
0 231 19T211 71Q211 73 212 83Q217 129 225 206H107Q64 206 48 226T31 289Q35 327 60 348T124 370Z" />
<glyph unicode="," glyph-name="comma" horiz-adv-x="254" d="M184 81L101 -74Q72 -122 26 -122Q-3 -122 -23 -101T-44 -51Q-43 -35 -36 -19Q-36 -18 -36 -18L-35 -16L40 129Q70 185 124 185Q153 185 173 165T193 117Q192 106 184 81Z" />
<glyph unicode="-" glyph-name="hyphen" horiz-adv-x="391" d="M92 370H275Q351 370 351 303Q351 260 326 237T259 213H76Q0 213 0 276Q0 316 27 343T92 370Z" />
<glyph unicode="." glyph-name="period" horiz-adv-x="245" d="M-2 80Q2 123 30 150T96 178Q132 178 154 155T177 98Q173 54 145 27T78 0Q44 0 21 23T-2 80Z" />
<glyph unicode="/" glyph-name="slash" horiz-adv-x="625" d="M111 92L416 713Q446 768 499 768Q528 768 545 749T563 703Q560 673 550 654L235 28Q230 14 210 0T162 -14Q136 -14 119 4T101 51Q101 76 111 92Z" />
<glyph unicode="0" glyph-name="zero" horiz-adv-x="582" d="M299 772H303Q364 772 408 744T477 668T513 566T525 451Q525 378 507 301T453 152T356 35T218 -11Q155 -11 109 17T38 92T2 194T-10 310Q-10 386 8 463T63 610T160 725T299 772ZM235 147Q268 147 294
180T334 261T355 356T362 436Q362 509 344 560T285 612Q251 612 224 580T183 499T161 406T154 324Q154 251 173 199T235 147Z" />
<glyph unicode="1" glyph-name="one" horiz-adv-x="404" d="M117 568Q84 556 62 556Q33 556 13 574T-7 621Q-7 653 14 677T68 710L219 750Q249 748 268 729T288 682Q288 668 227 83Q223 47 199 24T139 0Q105 0 85 20T65 72Q65 73 68 98Q84 254 117 568Z" />
<glyph unicode="2" glyph-name="two" horiz-adv-x="585" d="M42 532Q53 639 130 704T301 769Q385 769 447 716T510 580Q510 472 415 361Q260 181 239 156H400Q469 156 469 93Q469 52 446 27T383 0H87Q1 0 1 64Q1 103 30 136L307 465Q341 507 346 551Q346 579 328
595T282 611Q253 611 230 592T203 537Q199 506 175 478T115 449Q80 449 61 474T42 532Z" />
<glyph unicode="3" glyph-name="three" horiz-adv-x="570" d="M282 772Q371 772 425 716T479 583Q479 528 450 482T373 407Q470 351 470 242Q470 136 387 63T201 -11Q139 -11 91 17T16 88Q-5 122 -5 163Q-5 201 19 229T79 257Q101 257 121 244T148 207Q167 149
217 149Q251 149 278 171T310 231Q310 267 297 295T253 328H220Q180 328 161 341T142 384Q142 462 236 462Q255 462 265 464Q285 470 300 497T317 550Q317 616 261 616Q204 616 191 566Q188 550 172 531T123 512Q47 512 47 572Q47 656 122 714T282 772Z" />
<glyph unicode="4" glyph-name="four" horiz-adv-x="601" d="M269 168H59Q19 168 -2 189T-24 243Q-24 281 5 315L274 686Q320 750 386 750Q427 750 452 725T478 655Q478 645 444 324Q511 324 511 261Q511 219 489 194T428 169L420 86Q411 0 331 0Q297 0 279 18T260
71Q260 81 269 168ZM302 485L193 324H286L302 485Z" />
<glyph unicode="5" glyph-name="five" horiz-adv-x="595" d="M255 748H465Q498 748 516 728T535 676Q535 636 511 612T448 587H282Q279 574 262 510Q378 510 437 447T497 288Q497 165 410 77T202 -11Q114 -11 52 37T-10 139Q-6 179 17 201T71 223Q110 223 130
189Q143 170 169 158T223 145Q266 145 297 176T333 250Q333 297 311 326T243 356Q226 356 197 349T152 341Q79 341 79 405Q79 413 79 418T82 431T89 457T102 498T124 569T154 675Q164 709 190 728T255 748Z" />
<glyph unicode="6" glyph-name="six" horiz-adv-x="576" d="M394 616Q391 613 365 592T329 563T300 536T267 500T244 464Q274 479 327 479Q410 479 453 424T496 288Q496 168 413 79T217 -11Q111 -11 55 58T-1 233Q-1 478 288 726Q321 750 350 750Q383 750 403
732T424 680V670Q421 640 394 616ZM157 242Q157 202 177 174T234 144Q276 148 304 181T338 257Q338 302 318 330T254 359Q209 359 183 323T157 242Z" />
<glyph unicode="7" glyph-name="seven" horiz-adv-x="554" d="M106 749H421Q453 749 475 728T498 674Q498 654 484 622L189 63Q156 0 99 0Q64 0 48 19T31 68Q31 94 45 120L294 587H89Q11 587 11 654Q11 700 37 724T106 749Z" />
<glyph unicode="8" glyph-name="eight" horiz-adv-x="579" d="M119 412Q90 431 74 466T57 541Q57 635 132 701T299 768Q385 768 438 717T492 584Q492 532 466 488T399 418Q435 400 460 352T486 253Q486 147 403 68T218 -11Q118 -11 58 49T-3 206Q-3 270 30 326T119
412ZM254 330Q214 330 189 298T163 226Q163 192 182 171T235 149Q273 149 298 180T323 249Q323 284 304 307T254 330ZM267 485Q290 485 307 506T328 554Q328 583 315 597T282 612Q253 612 235 592T217 543Q217 518 230 502T267 485Z" />
<glyph unicode="9" glyph-name="nine" horiz-adv-x="570" d="M107 125Q219 209 277 284Q227 267 182 267Q92 267 42 330T-9 478Q-9 600 75 685T276 771Q380 771 438 703T497 524Q497 373 411 239T192 3Q166 -16 135 -16Q105 -16 86 3T66 50Q71 98 107 125ZM255
613Q207 613 179 572T150 484Q150 440 173 415T232 390Q282 390 312 428T342 515Q342 556 320 584T255 613Z" />
<glyph unicode=":" glyph-name="colon" horiz-adv-x="207" d="M-32 80Q-28 123 0 150T66 178Q102 178 124 155T147 98Q143 54 115 27T48 0Q14 0 -9 23T-32 80ZM0 389Q0 428 29 458T99 489Q134 489 157 467T180 411Q180 372 151 342T80 312Q46 312 23 334T0 389Z" />
<glyph unicode=";" glyph-name="semicolon" horiz-adv-x="254" d="M49 389Q49 428 78 458T148 489Q183 489 205 467T228 411Q228 372 199 342T129 312Q95 312 72 334T49 389ZM101 -74L184 81Q192 106 193 117Q193 145 173 165T124 185Q70 185 40 129L-35 -16L-36
-17Q-36 -18 -36 -19Q-43 -35 -44 -51Q-44 -80 -24 -101T26 -122Q72 -122 101 -74Z" />
<glyph unicode="&lt;" glyph-name="less" horiz-adv-x="651" d="M569 423L250 296L536 160Q587 137 587 92Q587 55 562 28T502 1Q476 1 448 15L74 212Q26 238 26 286Q31 346 91 373L518 562H519Q520 563 521 563Q549 573 567 573Q596 573 613 555T631 508Q626
449 569 423Z" />
<glyph unicode="=" glyph-name="equal" horiz-adv-x="659" d="M128 470H547Q616 470 616 406Q616 365 593 341T531 316H112Q42 316 42 379Q42 421 65 445T128 470ZM506 81H87Q17 81 17 145Q17 186 40 211T103 236H522Q591 236 591 173Q591 131 569 106T506 81Z" />
<glyph unicode="&gt;" glyph-name="greater" horiz-adv-x="651" d="M393 290L94 423Q47 447 47 489Q47 524 70 548T128 573Q143 573 176 562L561 373Q610 348 610 304Q610 275 592 251T545 212L128 15Q97 1 73 1Q41 1 24 19T6 66Q11 123 74 153Q131 179 230 220T393 290Z" />
<glyph unicode="?" glyph-name="question" horiz-adv-x="490" d="M70 80Q74 123 102 150T168 178Q202 178 224 155T247 98Q243 55 216 28T150 0Q115 0 93 23T70 80ZM277 546V552Q277 573 265 583T235 594Q218 594 204 582T188 553Q180 517 156 497T102 476Q74
476 54 495T33 549Q33 631 100 690T255 750Q332 750 384 704T436 573Q436 538 423 501T394 436T344 371T291 314T232 257Q201 233 173 233Q141 233 123 251T104 300Q104 334 143 375Q210 436 242 474T277 546Z" />
<glyph unicode="@" glyph-name="at" horiz-adv-x="833" d="M526 536Q535 579 563 579Q593 579 593 546Q593 503 582 422T570 301Q570 244 604 244Q633 244 655 271T689 337T705 411T711 471Q711 579 644 642T467 705Q363 705 283 648T163 504T123 322Q123 200
197 127T386 53Q552 53 638 139Q659 159 677 159Q702 159 702 137Q700 112 686 98Q575 -13 394 -13Q252 -13 152 76T51 313Q51 505 166 637T465 770Q604 770 691 695T778 487Q778 443 767 392T736 292T680 210T600 177Q546 177 506 234Q450 178 384 178Q311 178
273 225T235 343Q235 435 290 507T433 580Q486 580 526 536ZM495 298L513 472Q480 512 438 512Q378 512 343 462T307 352Q307 307 330 277T399 247Q459 247 495 298Z" />
<glyph unicode="A" glyph-name="A" horiz-adv-x="680" d="M337 501L244 303H386Q377 342 364 395T337 501ZM455 51L429 141H174Q144 76 139 66Q111 0 48 0Q13 0 -4 19T-21 67Q-21 86 -11 112L262 706Q295 777 366 777Q438 777 456 706Q613 101 613 80Q609 44 587
22T527 0Q469 0 455 51Z" />
<glyph unicode="B" glyph-name="B" horiz-adv-x="605" d="M40 687Q49 777 133 777H315Q351 777 388 767T460 735T516 677T538 591Q538 542 504 491T428 433Q483 425 520 370T557 254Q557 149 474 75T289 0H68Q21 0 2 15Q-24 34 -24 77Q-24 86 40 687ZM165 345L145
160H296Q340 160 368 185T399 245Q399 289 371 317T284 345H165ZM178 470H295Q333 470 355 490T381 540Q381 574 361 595T302 617H193L178 470Z" />
<glyph unicode="C" glyph-name="C" horiz-adv-x="712" d="M477 204Q504 228 534 228Q571 228 589 209T607 158Q607 109 569 78Q460 -11 331 -11Q175 -11 92 90T9 338Q9 459 60 564T207 736T422 802Q554 802 641 715Q665 690 665 655Q661 612 636 588T577 564Q539
564 518 588Q477 635 401 635Q331 635 279 591T203 487T179 363Q179 277 223 219T352 161Q430 161 477 204Z" />
<glyph unicode="D" glyph-name="D" horiz-adv-x="660" d="M43 687Q52 777 152 777H335Q427 777 493 728T589 604T619 438Q619 327 571 227T433 64T235 0H56Q12 0 -5 11T-22 60Q-22 75 43 687ZM308 617H196L148 160H247Q312 164 360 206T431 304T453 422Q453 506
416 561T308 617Z" />
<glyph unicode="E" glyph-name="E" horiz-adv-x="495" d="M48 690Q57 777 141 777H423Q496 777 496 713Q496 668 472 643T406 617H200L186 482H347Q420 482 420 415Q420 372 396 347T330 322H169L152 160H365Q444 160 444 94Q444 49 418 25T349 0H60Q15 0 -1 11T-17
54Q-17 65 48 690Z" />
<glyph unicode="F" glyph-name="F" horiz-adv-x="444" d="M37 687Q46 777 130 777H403Q477 777 477 713Q477 668 452 643T386 617H190L174 465H312Q384 465 384 400Q384 355 360 330T295 304H157L133 73Q125 0 45 0Q-29 0 -29 62Q-29 64 -25 102Q-3 308 37 687Z" />
<glyph unicode="G" glyph-name="G" horiz-adv-x="722" d="M340 153Q408 153 452 192T511 303H366Q287 303 287 369Q287 414 315 439T386 464H587Q640 464 660 440T681 372Q681 209 580 99T319 -11Q168 -11 89 86T10 327Q10 449 58 557T202 736T418 806Q508 806
584 762T661 655Q661 619 638 593T581 566Q548 566 523 592Q475 640 398 640Q344 640 300 612T231 539T193 445T179 348Q179 265 220 209T340 153Z" />
<glyph unicode="H" glyph-name="H" horiz-adv-x="679" d="M45 698Q54 779 131 779Q205 779 205 714Q205 703 180 475H470L494 698Q503 779 582 779Q656 779 656 713Q656 703 590 80Q581 0 501 0Q428 0 428 65Q428 75 454 314H164L139 80Q130 0 51 0Q-21 0 -21
64Q-21 75 45 698Z" />
<glyph unicode="I" glyph-name="I" horiz-adv-x="204" d="M29 698Q38 779 117 779Q191 779 191 713Q191 703 125 81Q116 0 36 0Q-37 0 -37 66Q-37 76 29 698Z" />
<glyph unicode="J" glyph-name="J" horiz-adv-x="452" d="M367 184Q357 94 296 41T145 -12Q53 -12 -5 46Q-27 66 -27 96Q-27 137 -4 162T60 188Q82 188 122 159Q141 145 163 145Q200 145 205 184L259 698Q268 779 347 779Q422 779 422 713Q422 703 367 184Z" />
<glyph unicode="K" glyph-name="K" horiz-adv-x="591" d="M44 705Q51 779 130 779Q205 779 205 717Q205 715 203 695Q194 614 181 487L452 754Q472 777 509 777Q539 777 561 754T584 702Q581 659 556 638Q526 608 465 549T363 450L523 133Q538 115 538 80Q534
45 502 22T448 -1Q425 -1 412 7T382 36L233 329L156 255L137 76Q129 0 51 0Q-24 0 -24 64Q-24 66 -18 119Q6 343 44 705Z" />
<glyph unicode="L" glyph-name="L" horiz-adv-x="508" d="M40 698Q49 779 127 779Q201 779 201 714Q201 703 143 160H394Q468 160 468 94Q468 50 444 25T378 0H59Q-24 0 -24 80Q-24 92 40 698Z" />
<glyph unicode="M" glyph-name="M" horiz-adv-x="922" d="M358 686L428 328L576 687Q614 779 696 779Q783 779 788 672L813 88Q812 48 787 25T726 1Q688 1 670 19T650 78L637 457Q600 386 548 247T481 72Q451 0 392 0Q328 0 316 72L251 459L147 79Q126 1 57 1Q-14
1 -14 65Q-14 81 -10 101L142 673Q171 781 258 781Q296 781 322 756T358 686Z" />
<glyph unicode="N" glyph-name="N" horiz-adv-x="670" d="M43 692Q52 779 131 779Q184 779 214 726L446 317L486 697Q495 778 573 778Q647 778 647 711Q647 709 640 642Q616 414 582 87Q573 0 493 0Q440 0 413 47L178 455L139 82Q130 0 51 0Q-22 0 -22 66Q-22 76 43 692Z" />
<glyph unicode="O" glyph-name="O" horiz-adv-x="753" d="M398 800Q474 800 533 771T629 693T684 581T703 449Q703 333 656 230T518 59T313 -9Q215 -9 145 41T44 168T12 341Q12 456 58 559T194 731T398 800ZM381 638Q329 638 288 611T224 540T189 450T177 358Q177
269 216 210T331 150Q383 150 424 178T489 249T525 340T538 432Q538 520 498 579T381 638Z" />
<glyph unicode="P" glyph-name="P" horiz-adv-x="617" d="M41 695Q50 778 133 778H342Q449 778 514 717T580 554Q580 435 496 353T295 269H156L136 81Q127 0 48 0Q-25 0 -25 65Q-25 75 41 695ZM312 618H192L173 429H308Q357 432 386 461T416 537Q416 575 389 596T312
618Z" />
<glyph unicode="Q" glyph-name="Q" horiz-adv-x="764" d="M399 800Q474 800 533 771T629 693T684 581T703 449Q703 301 628 175L665 136Q683 115 683 80Q680 47 657 24T596 1Q565 1 545 23L516 58Q422 -9 314 -9Q168 -9 90 92T12 342Q12 456 58 560T195 732T399
800ZM383 638Q332 638 291 611T226 540T190 450T178 359Q178 270 217 210T332 150Q380 150 417 170L360 233Q340 255 340 286Q344 327 367 351T421 375Q444 375 463 359Q474 349 496 322T520 293Q539 354 539 432Q539 520 500 579T383 638Z" />
<glyph unicode="R" glyph-name="R" horiz-adv-x="620" d="M40 695Q49 778 147 778H346Q456 778 520 716T584 568Q584 501 545 448T445 366L518 128Q526 100 526 85Q526 48 502 24T441 -1Q391 -1 373 43L277 329H161L136 88Q127 0 48 0Q-25 0 -25 71Q-25 82 40
695ZM336 618H191L178 488H323Q360 488 390 506T424 556Q424 588 398 603T336 618Z" />
<glyph unicode="S" glyph-name="S" horiz-adv-x="544" d="M349 605Q314 634 274 634Q207 634 201 577Q201 562 206 551T225 530T249 515T281 499T314 483Q407 435 452 390T497 271Q497 147 407 68T196 -12Q95 -12 17 43Q-21 69 -21 112Q-17 158 4 178T65 199Q95
199 123 182Q164 154 214 154Q258 154 290 176T326 240Q326 267 305 287T229 334Q194 351 173 362T121 395T74 436T45 487T32 551Q32 657 107 728T293 800Q390 800 460 742Q498 712 498 674Q498 638 471 609T409 580Q377 580 349 605Z" />
<glyph unicode="T" glyph-name="T" horiz-adv-x="526" d="M205 618H114Q39 618 39 683Q39 727 64 752T131 778H474Q548 778 548 712Q548 668 523 643T457 618H365L309 85Q300 0 223 0Q148 0 148 69Q148 79 205 618Z" />
<glyph unicode="U" glyph-name="U" horiz-adv-x="685" d="M44 692Q53 778 137 778Q212 778 212 709Q212 698 172 317Q170 291 170 287Q170 157 302 157Q366 157 405 193T454 317L493 692Q502 778 586 778Q662 778 662 708Q662 698 621 310Q603 142 508 66T275
-11Q150 -11 76 52T1 253Q1 280 44 692Z" />
<glyph unicode="V" glyph-name="V" horiz-adv-x="661" d="M207 721L309 280Q343 354 407 504T500 720Q527 779 582 779Q612 779 636 755T661 701Q658 679 650 666L385 88Q345 0 279 0Q217 0 197 80L47 668Q45 684 45 700Q54 780 133 780Q193 780 207 721Z" />
<glyph unicode="W" glyph-name="W" horiz-adv-x="919" d="M216 706L246 319Q270 381 313 516T378 710Q406 779 479 779Q553 779 564 710L622 325L720 705Q740 781 811 781Q843 781 864 761T885 707Q885 688 881 680Q849 567 790 362T709 84Q699 47 668 24T598
0Q564 0 538 19T506 77L442 450L314 91Q298 46 266 22T199 -2Q163 -2 136 23T105 89L52 698Q56 735 82 757T141 779T193 760T216 706Z" />
<glyph unicode="X" glyph-name="X" horiz-adv-x="664" d="M2 129L222 422L83 650Q71 670 71 690Q71 692 71 695T72 700Q76 734 101 756T159 778Q202 778 224 743L333 565Q357 597 401 655T464 739Q492 778 536 778Q565 778 586 758T607 707Q604 673 587 651L416
433L582 130Q596 104 596 80V71Q589 -1 516 -1Q474 -1 447 39L304 285L123 41Q93 -1 43 -1Q-22 -1 -22 59Q-22 61 -22 65T-21 72Q-18 101 2 129Z" />
<glyph unicode="Y" glyph-name="Y" horiz-adv-x="565" d="M184 317Q161 368 117 486T50 653Q40 673 40 691Q40 730 64 754T126 779Q175 779 190 736L284 463Q306 495 357 599T431 736Q462 779 508 779Q578 779 578 718Q578 686 561 659L346 315L322 86Q313 0 232
0Q159 0 159 68Q159 80 184 317Z" />
<glyph unicode="Z" glyph-name="Z" horiz-adv-x="598" d="M2 146L364 618H128Q55 618 55 682Q55 692 56 697Q65 778 145 778H517Q561 778 582 761T603 713Q603 711 603 708T602 702Q599 670 569 631L206 160H475Q550 160 550 94Q550 92 550 88T549 82Q540 0 459
0H48Q-23 0 -23 69Q-23 79 -22 85Q-17 121 2 146Z" />
<glyph unicode="[" glyph-name="bracketleft" horiz-adv-x="252" d="M31 675Q41 763 122 763H187Q254 763 254 700Q254 663 234 640T179 616L124 90Q184 87 184 31Q184 -8 161 -32T101 -56H36Q-37 -56 -37 16Q-37 27 31 675Z" />
<glyph unicode="\" glyph-name="backslash" horiz-adv-x="466" d="M196 699Q376 81 376 70V66Q373 36 350 15T295 -6Q238 -6 222 51L45 659Q42 671 42 689Q46 723 70 742T128 762Q160 762 173 748T196 699Z" />
<glyph unicode="]" glyph-name="bracketright" horiz-adv-x="252" d="M35 90L90 609Q31 611 31 668Q31 709 53 732T113 756H179Q252 756 252 686Q252 675 184 33Q175 -56 94 -56H28Q-38 -56 -38 6Q-38 44 -19 67T35 90Z" />
<glyph unicode="^" glyph-name="asciicircum" horiz-adv-x="625" d="M443 710L597 359Q605 338 605 322Q605 284 581 261T519 237Q491 237 475 251T445 296L346 527L194 295Q173 262 156 250T108 237Q78 237 58 254T37 303Q40 338 56 360L291 712Q321 756 372
756Q422 756 443 710Z" />
<glyph unicode="_" glyph-name="underscore" horiz-adv-x="614" d="M467 -153H23Q-47 -153 -47 -93Q-47 -53 -24 -30T39 -6H483Q555 -6 555 -68Q555 -108 531 -130T467 -153Z" />
<glyph unicode="`" glyph-name="grave" horiz-adv-x="255" d="M244 653L172 519Q140 461 92 461Q58 461 37 479T15 526Q15 548 27 570L101 708Q128 759 181 759Q215 759 235 742T255 692Q255 675 244 653Z" />
<glyph unicode="a" glyph-name="a" horiz-adv-x="640" d="M465 589Q535 589 535 522Q535 520 531 488Q518 359 496 157Q496 142 512 142Q589 142 589 78Q589 38 563 15T497 -8Q371 -8 347 83Q313 40 269 15T184 -11Q109 -11 56 59T2 242Q2 299 17 358T62 470T140
556T249 590Q288 590 324 571T378 514Q389 589 465 589ZM200 138T239 138T307 170T347 242T359 318Q359 376 334 410T274 445Q236 445 209 410T170 334T159 258Q159 206 179 172Z" />
<glyph unicode="b" glyph-name="b" horiz-adv-x="573" d="M52 739Q61 818 136 818Q207 818 207 754Q207 744 182 508Q248 589 340 589Q412 589 464 524T516 344Q516 269 484 189T390 49T252 -10Q210 -10 174 14T123 84L120 52Q117 23 94 7T49 -9Q-19 -9 -19 55Q-19
65 52 739ZM250 141Q279 141 301 160T334 208T351 267T357 321Q357 373 339 409T282 446Q241 446 212 414T172 342T161 266Q161 213 183 177T250 141Z" />
<glyph unicode="c" glyph-name="c" horiz-adv-x="515" d="M298 435Q235 435 197 384T158 270Q158 216 190 180T270 143Q313 143 347 165Q364 176 384 176Q409 176 428 157T448 111Q444 63 399 35Q332 -9 253 -9Q143 -9 72 66T1 256Q1 389 92 488T313 587Q387 587
435 564Q484 540 484 497Q480 459 459 439T403 418Q389 418 354 426T298 435Z" />
<glyph unicode="d" glyph-name="d" horiz-adv-x="630" d="M379 514L402 739Q411 819 490 819Q559 819 559 754Q559 744 497 159Q497 142 513 142Q590 142 590 78Q590 38 564 15T498 -8Q372 -8 348 83Q314 39 270 14T184 -11Q109 -11 56 59T2 242Q2 319 30 397T116
532T249 590Q288 590 324 571T379 514ZM200 138T239 138T307 170T347 242T359 318Q359 376 334 410T274 445Q236 445 209 410T170 334T159 258Q159 206 179 172Z" />
<glyph unicode="e" glyph-name="e" horiz-adv-x="576" d="M297 600Q404 600 462 539T520 374Q520 347 518 333Q516 310 508 296T491 273T463 261T430 257T386 256H157Q157 254 157 250T156 243Q156 190 196 163T277 135Q318 135 370 166T445 197Q495 197 495 131Q492
103 473 85Q386 -11 247 -11Q131 -11 67 63T3 252Q3 338 38 417T143 548T297 600ZM176 360H361Q362 365 362 374Q362 413 339 434T283 455Q245 455 213 430T176 360Z" />
<glyph unicode="f" glyph-name="f" horiz-adv-x="433" d="M243 435L193 -40Q181 -118 119 -164T-17 -210Q-93 -210 -93 -145Q-93 -114 -73 -92T-22 -70Q2 -70 22 -51T44 -8L90 436Q53 437 35 449T17 491Q17 531 41 551T106 572L113 640Q121 718 185 764T324 810Q401
810 401 745Q401 713 381 692T329 670Q305 670 287 652T266 608L263 572Q264 572 266 572T270 573Q309 573 327 561T346 517Q346 475 321 455T255 435H243Z" />
<glyph unicode="g" glyph-name="g" horiz-adv-x="595" d="M379 514L378 509Q386 589 465 589Q535 589 535 522Q535 520 531 485Q515 331 489 77Q473 -74 387 -159T188 -245Q101 -245 24 -193Q-7 -172 -7 -131Q-3 -94 20 -69T79 -44Q96 -44 132 -63Q170 -85 215
-85Q278 -85 306 -41T343 91Q282 -1 185 -1Q109 -1 56 66T2 243Q2 319 30 397T116 532T249 590Q288 590 324 571T379 514ZM200 138T239 138T307 170T347 242T359 318Q359 376 334 410T274 445Q236 445 209 410T170 334T159 258Q159 206 179 172Z" />
<glyph unicode="h" glyph-name="h" horiz-adv-x="538" d="M49 729Q58 809 133 809Q203 809 203 745Q203 735 179 510Q249 582 326 582Q387 582 431 541T476 416Q476 405 442 77Q434 0 356 0Q286 0 286 63Q286 72 287 77Q304 242 314 343Q317 367 317 369Q317 405
298 425T251 445Q219 445 193 422T163 356L134 77Q126 0 48 0Q-20 0 -20 62Q-20 72 49 729Z" />
<glyph unicode="i" glyph-name="i" horiz-adv-x="315" d="M35 497Q42 574 120 574Q192 574 192 510Q192 508 189 480Q177 363 157 173V166Q157 142 173 142Q250 142 250 78Q250 38 224 15T158 -8Q77 -8 37 27T-3 125Q-3 140 35 497ZM44 714Q48 757 76 784T143
812Q178 812 201 790T224 734Q224 695 195 665T124 634Q90 634 67 657T44 714Z" />
<glyph unicode="j" glyph-name="j" horiz-adv-x="242" d="M34 714Q38 758 66 785T133 812T192 787T213 723Q209 686 181 660T114 634Q79 634 57 657T34 714ZM118 -40Q177 508 177 518Q177 580 107 580Q35 580 18 503L-35 -8Q-37 -33 -55 -51T-97 -70Q-128 -70
-148 -91T-169 -145Q-169 -210 -92 -210Q-20 -210 43 -164T118 -40Z" />
<glyph unicode="k" glyph-name="k" horiz-adv-x="531" d="M48 730Q57 808 132 808Q202 808 202 745Q202 725 167 397L378 559Q404 578 432 578Q461 578 482 556T503 505Q501 481 493 468T465 441L352 352Q359 335 384 281T422 197T447 128T460 66Q456 33 436 15T388
-3Q341 -3 317 38L224 268Q219 265 185 237T146 205L133 77Q125 0 48 0Q-21 0 -21 62Q-21 72 48 730Z" />
<glyph unicode="l" glyph-name="l" horiz-adv-x="274" d="M131 170Q131 142 147 142Q224 142 224 78Q224 38 198 15T132 -8Q48 -8 11 28T-27 133Q-27 173 -19 244T6 451T34 731Q42 810 120 810Q190 810 190 746Q190 736 131 170Z" />
<glyph unicode="m" glyph-name="m" horiz-adv-x="852" d="M25 499Q28 533 50 556T108 579Q143 579 161 560T179 516V510Q249 582 326 582Q370 582 410 561T466 497Q493 535 539 557T633 580Q697 580 740 539T783 416Q783 405 749 77Q741 0 663 0Q593 0 593 63Q593
72 594 77Q611 242 621 343Q624 367 624 369Q624 405 605 425T558 445Q529 445 505 426T473 373L442 77Q434 0 356 0Q286 0 286 63Q286 72 287 77Q304 242 314 343Q317 367 317 369Q317 405 298 425T251 445Q219 445 193 422T163 356L134 77Q126 0 48 0Q-20 0 -20
62Q-20 72 25 499Z" />
<glyph unicode="n" glyph-name="n" horiz-adv-x="522" d="M25 499Q28 533 50 556T108 579Q143 579 161 560T179 516V510Q249 582 326 582Q387 582 431 541T476 416Q476 405 442 77Q434 0 356 0Q286 0 286 63Q286 72 287 77Q304 242 314 343Q317 367 317 369Q317
405 298 425T251 445Q219 445 193 422T163 356L134 77Q126 0 48 0Q-20 0 -20 62Q-20 72 25 499Z" />
<glyph unicode="o" glyph-name="o" horiz-adv-x="588" d="M297 598Q407 598 467 520T527 330Q527 192 447 92T234 -9Q123 -9 64 66T4 252Q4 390 87 494T297 598ZM282 456Q242 456 214 422T174 349T163 273Q163 216 184 174T248 131Q288 131 317 163T357 233T368
309Q368 367 347 411T282 456Z" />
<glyph unicode="p" glyph-name="p" horiz-adv-x="573" d="M28 509Q36 588 112 588Q183 588 183 523Q183 521 183 517T182 509Q248 589 340 589Q412 589 464 524T516 344Q516 269 484 189T390 49T252 -10Q211 -10 174 12T122 73L99 -143Q96 -172 73 -188T28 -204Q-40
-204 -40 -138Q-40 -136 -32 -65Q-7 173 28 509ZM250 141Q279 141 301 160T334 208T351 267T357 321Q357 373 339 409T282 446Q241 446 212 414T172 342T161 266Q161 213 183 177T250 141Z" />
<glyph unicode="q" glyph-name="q" horiz-adv-x="579" d="M379 514L378 509Q386 589 465 589Q535 589 535 522Q535 520 530 469Q506 243 467 -129Q459 -203 382 -203Q319 -203 319 -145Q319 -137 341 71Q279 -11 184 -11Q109 -11 56 59T2 242Q2 319 30 397T116
532T249 590Q288 590 324 571T379 514ZM200 138T239 138T307 170T347 242T359 318Q359 376 334 410T274 445Q236 445 209 410T170 334T159 258Q159 206 179 172Z" />
<glyph unicode="r" glyph-name="r" horiz-adv-x="408" d="M20 500Q29 580 105 580Q130 580 146 565T163 519V514Q178 539 220 563T294 588Q346 588 371 567T396 513Q396 477 370 451T308 425Q296 425 277 428T249 431Q219 431 191 410T159 356L130 77Q122 0 45
0Q-25 0 -25 62Q-25 72 20 500Z" />
<glyph unicode="s" glyph-name="s" horiz-adv-x="498" d="M231 124Q280 124 284 160Q280 176 252 194T188 231T116 274T56 332T31 409Q40 497 109 547T271 597Q360 597 427 560Q461 540 461 502Q458 471 438 452T385 432Q360 432 314 447T237 462Q191 462 187
426Q187 408 214 389T279 352T355 311T420 255T447 178Q447 86 372 39T200 -9Q103 -9 15 50Q-10 67 -10 105Q-7 142 16 160T69 179Q97 179 143 152T231 124Z" />
<glyph unicode="t" glyph-name="t" horiz-adv-x="399" d="M96 571L100 610Q108 686 185 686Q256 686 256 623Q256 621 256 618T254 602T251 571H294Q333 571 350 560T368 518Q368 442 282 442H237Q210 180 210 169Q210 142 226 142Q303 142 303 78Q303 38 277
15T211 -8Q124 -8 89 30T54 146Q54 174 82 444Q18 451 18 497Q18 562 96 571Z" />
<glyph unicode="u" glyph-name="u" horiz-adv-x="544" d="M155 253Q153 231 153 224Q153 143 212 143Q250 143 282 183T322 291L345 513Q349 552 368 572T428 592Q497 592 497 529Q497 519 449 61Q441 -13 364 -13Q343 -13 328 1T312 42V50L315 80Q241 -6 152
-6Q86 -6 41 47T-4 192Q-4 208 27 510Q36 587 111 587Q181 587 181 526Q181 516 155 253Z" />
<glyph unicode="v" glyph-name="v" horiz-adv-x="503" d="M183 513L226 243L324 516Q357 584 413 584Q444 584 462 568T481 519Q481 493 471 477L282 56Q256 0 196 0Q138 0 124 56L27 479Q25 493 25 501Q29 540 52 562T110 584Q172 584 183 513Z" />
<glyph unicode="w" glyph-name="w" horiz-adv-x="881" d="M198 525L244 232L344 521Q354 550 379 566T433 582Q460 582 485 565T514 518L555 237L652 525Q672 584 738 584Q775 584 790 570T805 523Q805 495 793 469Q792 467 787 455T770 414T739 344T689 228T616
64Q588 1 529 1Q471 1 456 67Q443 122 433 190T408 316L305 65Q277 0 214 0Q150 0 134 67Q38 479 38 501Q38 539 62 561T124 583Q180 583 198 525Z" />
<glyph unicode="x" glyph-name="x" horiz-adv-x="547" d="M12 139L166 300L64 453Q51 472 51 496Q51 531 77 556T138 582Q184 582 206 543L264 420L351 545Q377 583 425 583Q456 583 476 564T496 514Q493 478 470 453L336 305L456 143Q474 119 474 87Q474 47 452
24T394 0Q341 0 317 46L234 183Q213 157 174 108T123 44Q88 2 44 2Q-20 2 -20 60Q-20 100 12 139Z" />
<glyph unicode="y" glyph-name="y" horiz-adv-x="517" d="M121 42Q104 117 74 262T29 469Q25 481 25 493Q25 534 48 558T109 582Q170 582 183 520L224 209Q242 248 281 367T338 525Q363 583 424 583Q459 583 476 565T493 517Q493 494 484 470L239 -55Q165 -210
33 -210Q-43 -210 -43 -145Q-43 -143 -43 -140T-42 -134Q-38 -101 -17 -86T28 -70Q63 -70 87 -36T121 42Z" />
<glyph unicode="z" glyph-name="z" horiz-adv-x="528" d="M125 582H397Q474 582 474 521Q474 484 440 448L200 144H373Q444 144 444 81Q444 41 421 21T357 0H71Q-18 0 -18 64Q-18 99 14 133L246 436H108Q38 436 38 499Q38 582 125 582Z" />
<glyph unicode="{" glyph-name="braceleft" horiz-adv-x="379" d="M3 357Q5 379 18 394T44 416T79 429Q97 429 105 466T116 549T120 600Q128 691 173 723T298 756Q326 756 345 736T364 691Q358 616 274 616Q269 616 267 593Q266 581 263 544T256 491T247 448T228
399T199 359Q230 323 230 251Q230 226 224 179T217 109Q217 90 229 90Q296 85 296 34Q296 32 296 28T295 22Q287 -48 213 -48Q60 -48 60 69Q60 99 69 154T78 238Q78 276 69 285Q29 293 16 307T3 357Z" />
<glyph unicode="|" glyph-name="bar" horiz-adv-x="175" d="M35 733Q44 816 121 816Q190 816 190 749Q190 739 118 61Q109 -16 33 -16Q-37 -16 -37 46Q-37 56 35 733Z" />
<glyph unicode="}" glyph-name="braceright" horiz-adv-x="379" d="M247 285Q233 269 227 235T220 153T217 97Q210 31 171 -8T33 -48Q-32 -48 -32 22Q-25 85 47 90Q62 90 66 120Q68 135 71 170T76 224T85 270T104 318T134 359Q102 401 102 477Q102 507 104 523Q105
534 111 561T118 604Q118 616 113 616Q74 616 56 632T37 685Q40 711 64 733T118 756Q191 756 230 730T269 630Q269 604 261 555T253 481Q253 436 269 429L274 427Q301 419 316 406T331 367Q331 300 247 285Z" />
<glyph unicode="~" glyph-name="asciitilde" horiz-adv-x="612" d="M66 166Q-1 166 -1 233Q-1 288 63 341T182 395Q236 395 309 352Q349 328 363 328L365 330Q367 332 370 336T377 343Q390 359 399 367T426 385T464 394Q532 394 532 327Q532 271 464 219T340 166Q291
166 227 206Q222 209 211 215T195 224T181 229T167 232Q162 232 149 218Q107 166 66 166Z" />
<glyph unicode="&#xa0;" glyph-name="uni00A0" horiz-adv-x="0" />
<glyph unicode="&#xa3;" glyph-name="sterling" horiz-adv-x="678" d="M153 310H87Q17 310 17 372Q17 414 40 438T103 464H118Q101 505 101 545Q101 609 142 659T241 734T358 759Q454 759 526 705T598 559Q595 520 571 494T513 468Q461 468 441 529Q440 565 412
585T345 605Q308 605 288 586T267 532Q267 495 281 464H375Q444 464 444 401Q444 359 421 335T359 310H313Q313 299 311 279Q303 212 263 156H497Q567 156 567 92Q567 51 544 27T481 2H91Q17 2 17 64Q17 108 68 157Q107 194 128 223T153 287V310Z" />
<glyph unicode="&#xa4;" glyph-name="currency" horiz-adv-x="776" d="M73 156L152 209Q148 239 148 255Q148 293 170 344L98 399Q64 432 64 477Q67 510 91 528T145 546T203 520L273 455Q336 489 384 489Q438 489 486 457L565 520Q598 546 631 546Q658 546 678
530T699 485Q693 429 647 399L567 340Q581 323 581 290Q581 239 561 202L621 157Q657 125 657 86Q654 48 629 29T575 10Q542 10 515 36L463 86Q397 43 336 43Q273 43 221 89Q214 84 190 64T155 38Q120 10 89 10Q62 10 42 26T22 71Q26 122 73 156ZM371 355Q334 355
311 325T288 254Q288 218 307 198T354 178Q392 178 416 210T441 282Q441 316 421 335T371 355Z" />
<glyph unicode="&#xa5;" glyph-name="yen" horiz-adv-x="565" d="M429 470H497Q566 470 566 406Q566 365 543 341T481 316H346L342 276H477Q545 276 545 215Q545 171 523 146T460 121H325L322 86Q315 0 232 0Q159 0 159 68Q159 80 163 121H41Q-29 121 -29 185Q-29
226 -6 251T58 276H180L184 316H62Q-8 316 -8 379Q-8 421 15 445T78 470H135Q77 592 49 653Q40 675 40 691Q40 730 64 754T126 779Q175 779 190 736L282 470H289Q310 501 359 602T431 736Q462 779 508 779Q578 779 578 718Q578 684 561 659L429 470Z" />
<glyph unicode="&#xa6;" glyph-name="brokenbar" horiz-adv-x="175" d="M35 739Q39 778 63 801T121 825Q153 825 172 808T191 758Q191 757 190 743Q181 667 166 521Q159 444 81 444Q11 444 11 508Q11 510 13 530Q22 611 35 739ZM-8 324Q-4 363 20 386T78 410Q109
410 128 394T147 346Q147 337 120 77Q112 0 35 0Q-35 0 -35 62Q-35 72 -8 324Z" />
<glyph unicode="&#xa7;" glyph-name="section" horiz-adv-x="531" d="M194 465Q120 491 76 526T31 621Q31 716 106 772T276 829Q363 829 431 789Q465 770 465 728Q465 726 465 723T464 718Q460 683 435 662T379 641Q358 641 323 655T256 670Q199 670 196 645Q196
632 236 612T324 569T413 508T453 424Q453 383 427 351T361 319Q337 319 324 328T304 354T288 389T256 428T194 465ZM250 313Q284 300 298 294T340 274T380 245T403 209T414 160Q414 62 340 6T170 -51Q86 -51 15 -12Q-18 7 -18 49Q-18 84 7 110T67 136Q88 136 123
122T190 108Q247 108 250 132Q250 145 210 167T122 211T33 272T-7 354Q-7 395 20 426T86 458Q114 458 130 442T155 403T187 355T250 313Z" />
<glyph unicode="&#xa8;" glyph-name="dieresis" horiz-adv-x="487" d="M32 614Q36 658 64 685T131 712Q165 712 188 689T211 632Q207 589 179 562T113 534Q77 534 55 557T32 614ZM281 614Q285 657 312 684T378 712Q414 712 436 690T458 633Q454 589 427 562T360
534Q326 534 304 557T281 614Z" />
<glyph unicode="&#xa9;" glyph-name="copyright" horiz-adv-x="895" d="M444 749Q599 749 692 656T786 413Q786 235 662 112T362 -12Q208 -12 115 81T21 322Q21 441 79 539T234 693T444 749ZM377 80Q511 80 599 177T688 402Q688 515 619 587T435 660Q300 660 212
561T124 333Q124 221 193 151T377 80ZM418 470Q375 470 349 434T323 354Q323 319 342 294T391 269Q406 269 432 277T472 286Q533 286 533 232Q533 192 496 162Q453 131 384 131Q292 131 239 191T185 342Q185 449 260 529T436 610Q478 610 529 586Q548 578 559 562T570
528Q567 496 546 474T496 452Q486 452 460 461T418 470Z" />
<glyph unicode="&#xab;" glyph-name="guillemotleft" horiz-adv-x="579" d="M481 400L397 288L461 152Q466 142 466 126Q463 101 435 79T377 57Q335 57 322 89L247 235Q237 259 237 288Q238 309 258 340L364 487Q389 517 427 517Q500 517 500 458Q500 427 481
400ZM241 402L158 288L222 150Q226 141 226 126Q223 101 195 79T137 57Q97 57 81 89L10 235Q-2 259 -2 288Q-1 309 22 341L122 485Q149 518 185 518Q213 518 235 497T257 447Q254 421 241 402Z" />
<glyph unicode="&#xac;" glyph-name="logicalnot" horiz-adv-x="674" d="M413 141L420 213H82Q7 213 7 275Q7 316 33 343T98 370H510Q584 370 584 299Q584 289 569 151Q560 68 485 68Q455 68 434 88T413 141Z" />
<glyph unicode="&#xad;" glyph-name="uni00AD" horiz-adv-x="0" />
<glyph unicode="&#xae;" glyph-name="registered" horiz-adv-x="894" d="M444 756Q598 756 691 663T785 422Q785 240 662 118T364 -4Q211 -4 117 89T22 331Q22 510 147 633T444 756ZM336 607H459Q527 607 568 563Q605 526 605 472Q605 429 581 395T519 341L539
307Q574 245 574 215Q570 181 548 164T492 146Q446 146 426 197L370 318L359 215Q352 146 281 146Q219 146 219 201Q219 210 253 532Q258 581 294 598Q314 607 336 607ZM440 488H387L380 420H433Q454 420 466 430T480 455V459Q480 488 440 488ZM379 85Q515 85 601
182T688 410Q688 522 619 593T434 665Q299 665 210 568T121 342Q121 229 191 157T379 85Z" />
<glyph unicode="0;" glyph-name="degree" horiz-adv-x="304" d="M180 802Q235 802 268 769T301 684Q301 622 256 578T152 534Q98 534 65 567T32 653Q32 716 76 759T180 802ZM173 735Q141 735 122 714T100 660Q100 634 116 618T159 601Q188 601 209 621T233
676Q233 701 217 718T173 735Z" />
<glyph unicode="1;" glyph-name="plusminus" horiz-adv-x="625" d="M138 495H256L260 542Q263 581 286 601T348 622Q381 622 401 605T422 555Q422 554 422 553T422 548T421 539T419 522T416 495H534Q572 495 593 475T615 424Q615 381 588 359T517 336H399L393
280Q389 245 364 224T303 202Q232 202 232 265Q232 275 239 336H121Q47 336 47 401Q47 446 72 470T138 495ZM106 156H504Q580 156 580 92Q580 49 555 25T488 1H90Q14 1 14 64Q14 105 41 130T106 156Z" />
<glyph unicode="2;" glyph-name="twosuperior" horiz-adv-x="331" d="M21 666Q26 720 64 752T150 784Q192 784 223 758T255 690Q255 636 207 580Q196 568 169 536T119 478H200Q234 478 234 446Q234 402 191 400H43Q0 400 0 432Q0 451 15 468L153 632Q170 654
173 675Q173 689 164 697T141 705Q126 705 115 696T101 668Q99 653 87 639T57 624Q40 624 31 637T21 666Z" />
<glyph unicode="3;" glyph-name="threesuperior" horiz-adv-x="334" d="M141 786Q185 786 212 758T239 691Q239 636 186 603Q235 576 235 521Q235 468 194 431T100 394Q39 394 8 444Q-3 461 -3 481Q-3 500 9 514T39 528Q66 528 74 503Q83 474 108 474Q125
474 139 485T155 515Q155 559 126 564H110Q71 564 71 592Q71 631 118 631Q127 631 132 632Q142 635 149 648T158 675Q158 708 130 708Q101 708 95 683Q94 675 86 666T61 656Q23 656 23 686Q23 728 60 757T141 786Z" />
<glyph unicode="5;" glyph-name="mu" horiz-adv-x="547" d="M25 505Q32 583 110 583Q181 583 181 519Q181 515 178 483L149 205Q151 181 166 166T206 150Q244 150 272 179T304 250L331 505Q340 583 418 583Q489 583 489 518Q489 516 485 480L443 83Q434 0
357 0Q334 0 318 15T302 58Q289 30 262 14T202 -3Q176 -3 157 12T133 53Q130 21 123 -40T113 -132Q104 -210 25 -210Q-43 -210 -43 -146Q-43 -147 -41 -126T-22 56T25 505Z" />
<glyph unicode="6;" glyph-name="paragraph" horiz-adv-x="572" d="M184 357Q110 368 65 413T20 524Q20 640 105 700T316 760H550Q579 758 597 738T615 686Q611 656 588 635T535 612L477 64Q474 34 454 17T409 -1Q387 -1 371 14T354 56Q354 57 357 85Q376
261 413 614H336L279 69Q275 36 255 17T210 -2Q186 -2 170 15T153 64Q153 66 155 85Q166 183 184 357Z" />
<glyph unicode="7;" glyph-name="middot" horiz-adv-x="209" d="M-4 347Q0 390 28 417T94 445Q130 445 152 422T175 365Q171 322 143 295T76 267Q42 267 19 290T-4 347Z" />
<glyph unicode="b;" glyph-name="guillemotright" horiz-adv-x="525" d="M237 156L326 289Q320 300 264 402Q254 419 254 439Q254 477 277 499T338 521Q385 521 400 486L474 341Q486 317 486 296Q483 262 463 234L358 89Q336 58 291 58Q220 58 220 112Q222
142 237 156ZM-5 154L88 288L22 422L23 419Q15 433 15 448Q17 476 44 498T102 521Q144 521 161 485L231 341Q245 311 245 292Q242 260 221 234L120 90Q99 58 55 58Q-20 58 -20 113Q-18 138 -5 154Z" />
<glyph unicode="d;" glyph-name="onehalf" horiz-adv-x="630" d="M36 71L367 743Q391 782 419 782Q434 782 443 771T453 741Q453 724 444 706L103 26Q86 1 64 1Q49 1 39 12T29 42Q29 57 36 71ZM58 694Q44 688 31 688Q16 688 6 697T-4 720Q-4 736 7 748T34
765L109 785Q124 783 134 774T144 751Q144 749 113 451Q111 433 99 422T69 410Q52 410 42 420T32 446V447Q36 483 58 694ZM340 266Q345 320 383 352T469 384Q511 384 542 358T574 290Q574 236 526 180Q515 168 488 136T438 78H519Q553 78 553 46Q553 2 510 0H362Q319
0 319 32Q319 51 334 68L472 232Q489 254 492 275Q492 289 483 297T460 305Q445 305 434 296T420 268Q418 253 406 239T376 224Q359 224 350 237T340 266Z" />
</font>
</defs>
</svg>
